<svg width="29" height="29" viewBox="0 0 29 29" fill="none" xmlns="http://www.w3.org/2000/svg">
<path d="M12.0834 18.125L18.3546 14.5L12.0834 10.875V18.125ZM26.0517 8.66377C26.2088 9.23169 26.3175 9.99294 26.39 10.9596C26.4746 11.9263 26.5109 12.76 26.5109 13.485L26.5834 14.5C26.5834 17.1463 26.39 19.0917 26.0517 20.3363C25.7496 21.4238 25.0488 22.1246 23.9613 22.4267C23.3934 22.5838 22.3542 22.6925 20.7592 22.765C19.1884 22.8496 17.7504 22.8859 16.4213 22.8859L14.5 22.9584C9.4371 22.9584 6.28335 22.765 5.03877 22.4267C3.95127 22.1246 3.25044 21.4238 2.94835 20.3363C2.79127 19.7684 2.68252 19.0071 2.61002 18.0404C2.52544 17.0738 2.48919 16.24 2.48919 15.515L2.41669 14.5C2.41669 11.8538 2.61002 9.90835 2.94835 8.66377C3.25044 7.57627 3.95127 6.87544 5.03877 6.57335C5.60669 6.41627 6.64585 6.30752 8.24085 6.23502C9.81169 6.15044 11.2496 6.11419 12.5788 6.11419L14.5 6.04169C19.5629 6.04169 22.7167 6.23502 23.9613 6.57335C25.0488 6.87544 25.7496 7.57627 26.0517 8.66377Z" fill="#333333"/>
</svg>
